<mxfile host="app.diagrams.net" modified="2023-04-13T09:56:51.244Z" agent="Mozilla/5.0 (Windows NT 10.0; Win64; x64) AppleWebKit/537.36 (KHTML, like Gecko) Chrome/112.0.0.0 Safari/537.36" etag="TiYNP9V7sJcLN8r1bIYl" version="21.1.4" type="device">
  <diagram id="JssvWN89E4UZlM1hKAg1" name="Page-1">
    <mxGraphModel dx="989" dy="549" grid="1" gridSize="10" guides="1" tooltips="1" connect="1" arrows="1" fold="1" page="1" pageScale="1" pageWidth="850" pageHeight="1100" math="0" shadow="0">
      <root>
        <mxCell id="0" />
        <mxCell id="1" parent="0" />
        <mxCell id="rIFNf6sot4xGJ_cOGgmm-1" value="ATMega4808" style="rounded=1;whiteSpace=wrap;html=1;" parent="1" vertex="1">
          <mxGeometry x="330" y="280" width="120" height="60" as="geometry" />
        </mxCell>
        <mxCell id="5al8twwwPSpBI_dk1By6-3" value="" style="edgeStyle=orthogonalEdgeStyle;rounded=0;orthogonalLoop=1;jettySize=auto;html=1;" parent="1" source="rIFNf6sot4xGJ_cOGgmm-2" target="rIFNf6sot4xGJ_cOGgmm-1" edge="1">
          <mxGeometry relative="1" as="geometry" />
        </mxCell>
        <mxCell id="rIFNf6sot4xGJ_cOGgmm-2" value="&amp;nbsp;Nextion touch Display" style="rounded=0;whiteSpace=wrap;html=1;" parent="1" vertex="1">
          <mxGeometry x="315" y="160" width="150" height="80" as="geometry" />
        </mxCell>
        <mxCell id="rIFNf6sot4xGJ_cOGgmm-3" value="" style="endArrow=classic;html=1;rounded=0;" parent="1" edge="1">
          <mxGeometry width="50" height="50" relative="1" as="geometry">
            <mxPoint x="380" y="280" as="sourcePoint" />
            <mxPoint x="380" y="240" as="targetPoint" />
          </mxGeometry>
        </mxCell>
        <mxCell id="rIFNf6sot4xGJ_cOGgmm-4" value="" style="endArrow=classic;html=1;rounded=0;" parent="1" edge="1">
          <mxGeometry width="50" height="50" relative="1" as="geometry">
            <mxPoint x="389.83" y="240" as="sourcePoint" />
            <mxPoint x="389.83" y="280" as="targetPoint" />
          </mxGeometry>
        </mxCell>
        <mxCell id="rIFNf6sot4xGJ_cOGgmm-5" value="Rx/Tx" style="text;html=1;align=center;verticalAlign=middle;resizable=0;points=[];autosize=1;strokeColor=none;fillColor=none;" parent="1" vertex="1">
          <mxGeometry x="390" y="250" width="50" height="30" as="geometry" />
        </mxCell>
        <mxCell id="rIFNf6sot4xGJ_cOGgmm-9" value="Fan" style="rounded=1;whiteSpace=wrap;html=1;" parent="1" vertex="1">
          <mxGeometry x="150" y="240" width="90" height="60" as="geometry" />
        </mxCell>
        <mxCell id="rIFNf6sot4xGJ_cOGgmm-10" value="" style="endArrow=classic;html=1;rounded=0;entryX=1;entryY=0.5;entryDx=0;entryDy=0;" parent="1" target="rIFNf6sot4xGJ_cOGgmm-9" edge="1">
          <mxGeometry width="50" height="50" relative="1" as="geometry">
            <mxPoint x="330" y="290.00000000000006" as="sourcePoint" />
            <mxPoint x="280" y="290.29" as="targetPoint" />
            <Array as="points">
              <mxPoint x="280" y="290" />
              <mxPoint x="280" y="270" />
            </Array>
          </mxGeometry>
        </mxCell>
        <mxCell id="rIFNf6sot4xGJ_cOGgmm-11" value="Cooler" style="rounded=1;whiteSpace=wrap;html=1;" parent="1" vertex="1">
          <mxGeometry x="150" y="310" width="90" height="60" as="geometry" />
        </mxCell>
        <mxCell id="rIFNf6sot4xGJ_cOGgmm-12" value="Heater" style="rounded=1;whiteSpace=wrap;html=1;" parent="1" vertex="1">
          <mxGeometry x="150" y="390" width="90" height="60" as="geometry" />
        </mxCell>
        <mxCell id="rIFNf6sot4xGJ_cOGgmm-13" value="" style="endArrow=classic;html=1;rounded=0;entryX=1;entryY=0.5;entryDx=0;entryDy=0;" parent="1" target="rIFNf6sot4xGJ_cOGgmm-11" edge="1">
          <mxGeometry width="50" height="50" relative="1" as="geometry">
            <mxPoint x="330" y="310.00000000000006" as="sourcePoint" />
            <mxPoint x="240" y="290" as="targetPoint" />
            <Array as="points">
              <mxPoint x="280" y="310" />
              <mxPoint x="280" y="340" />
            </Array>
          </mxGeometry>
        </mxCell>
        <mxCell id="rIFNf6sot4xGJ_cOGgmm-15" value="" style="endArrow=classic;html=1;rounded=0;entryX=1.017;entryY=0.574;entryDx=0;entryDy=0;entryPerimeter=0;" parent="1" target="rIFNf6sot4xGJ_cOGgmm-12" edge="1">
          <mxGeometry width="50" height="50" relative="1" as="geometry">
            <mxPoint x="330" y="330.00000000000006" as="sourcePoint" />
            <mxPoint x="240" y="360" as="targetPoint" />
            <Array as="points">
              <mxPoint x="300" y="330" />
              <mxPoint x="300" y="424" />
            </Array>
          </mxGeometry>
        </mxCell>
        <mxCell id="rIFNf6sot4xGJ_cOGgmm-19" value="SOD30" style="rounded=1;whiteSpace=wrap;html=1;" parent="1" vertex="1">
          <mxGeometry x="530" y="280" width="90" height="60" as="geometry" />
        </mxCell>
        <mxCell id="rIFNf6sot4xGJ_cOGgmm-25" value="UART/PWM" style="text;html=1;align=center;verticalAlign=middle;resizable=0;points=[];autosize=1;strokeColor=none;fillColor=none;" parent="1" vertex="1">
          <mxGeometry x="440" y="310" width="90" height="30" as="geometry" />
        </mxCell>
        <mxCell id="5al8twwwPSpBI_dk1By6-2" value="WI-FI" style="rounded=1;whiteSpace=wrap;html=1;" parent="1" vertex="1">
          <mxGeometry x="350" y="380" width="90" height="60" as="geometry" />
        </mxCell>
        <mxCell id="5al8twwwPSpBI_dk1By6-6" value="" style="endArrow=classic;html=1;rounded=0;" parent="1" edge="1">
          <mxGeometry width="50" height="50" relative="1" as="geometry">
            <mxPoint x="380" y="380" as="sourcePoint" />
            <mxPoint x="380" y="340" as="targetPoint" />
          </mxGeometry>
        </mxCell>
        <mxCell id="5al8twwwPSpBI_dk1By6-7" value="" style="endArrow=classic;html=1;rounded=0;" parent="1" edge="1">
          <mxGeometry width="50" height="50" relative="1" as="geometry">
            <mxPoint x="394.88" y="340" as="sourcePoint" />
            <mxPoint x="394.88" y="380" as="targetPoint" />
          </mxGeometry>
        </mxCell>
        <mxCell id="5al8twwwPSpBI_dk1By6-8" value="Rx/Tx" style="text;html=1;align=center;verticalAlign=middle;resizable=0;points=[];autosize=1;strokeColor=none;fillColor=none;" parent="1" vertex="1">
          <mxGeometry x="400" y="340" width="50" height="30" as="geometry" />
        </mxCell>
        <mxCell id="5al8twwwPSpBI_dk1By6-9" value="" style="endArrow=classic;html=1;rounded=0;" parent="1" edge="1">
          <mxGeometry width="50" height="50" relative="1" as="geometry">
            <mxPoint x="382.44" y="480" as="sourcePoint" />
            <mxPoint x="382.44" y="440" as="targetPoint" />
          </mxGeometry>
        </mxCell>
        <mxCell id="5al8twwwPSpBI_dk1By6-10" value="" style="endArrow=classic;html=1;rounded=0;" parent="1" edge="1">
          <mxGeometry width="50" height="50" relative="1" as="geometry">
            <mxPoint x="397.32" y="440" as="sourcePoint" />
            <mxPoint x="397.32" y="480" as="targetPoint" />
          </mxGeometry>
        </mxCell>
        <mxCell id="5al8twwwPSpBI_dk1By6-12" value="Cloud" style="ellipse;shape=cloud;whiteSpace=wrap;html=1;" parent="1" vertex="1">
          <mxGeometry x="360" y="470" width="70" height="80" as="geometry" />
        </mxCell>
        <mxCell id="5al8twwwPSpBI_dk1By6-13" value="" style="endArrow=classic;html=1;rounded=0;exitX=0.99;exitY=-0.01;exitDx=0;exitDy=0;exitPerimeter=0;entryX=0.11;entryY=0.017;entryDx=0;entryDy=0;entryPerimeter=0;" parent="1" source="rIFNf6sot4xGJ_cOGgmm-25" target="rIFNf6sot4xGJ_cOGgmm-25" edge="1">
          <mxGeometry width="50" height="50" relative="1" as="geometry">
            <mxPoint x="490" y="290" as="sourcePoint" />
            <mxPoint x="490" y="330" as="targetPoint" />
          </mxGeometry>
        </mxCell>
      </root>
    </mxGraphModel>
  </diagram>
</mxfile>
